<svg xmlns="http://www.w3.org/2000/svg" viewBox="0 0 1200 650" role="img" aria-labelledby="title desc">
  <title id="title">Transformer 编码器与解码器</title>
  <desc id="desc">编码器由自注意力和前馈网络组成，解码器增加掩码注意力和交叉注意力。</desc>
  <rect width="1200" height="650" rx="28" fill="#0b0f17"/>
  <text x="60" y="68" fill="#f8fafc" font-family="Arial,sans-serif" font-size="30" font-weight="700">Transformer Architecture</text>
  <g font-family="Arial,sans-serif">
    <rect x="88" y="112" width="430" height="470" rx="28" fill="#111827" stroke="#334155" stroke-width="2"/>
    <text x="303" y="158" fill="#60a5fa" font-size="22" font-weight="700" text-anchor="middle">ENCODER × N</text>
    <rect x="160" y="196" width="286" height="76" rx="16" fill="#172554" stroke="#3b82f6"/>
    <text x="303" y="241" fill="#dbeafe" font-size="20" text-anchor="middle">Multi-Head Self-Attention</text>
    <rect x="160" y="302" width="286" height="54" rx="14" fill="#1e293b" stroke="#475569"/>
    <text x="303" y="336" fill="#cbd5e1" font-size="17" text-anchor="middle">Add &amp; LayerNorm</text>
    <rect x="160" y="386" width="286" height="76" rx="16" fill="#134e4a" stroke="#14b8a6"/>
    <text x="303" y="431" fill="#ccfbf1" font-size="20" text-anchor="middle">Feed-Forward Network</text>
    <rect x="160" y="492" width="286" height="54" rx="14" fill="#1e293b" stroke="#475569"/>
    <text x="303" y="526" fill="#cbd5e1" font-size="17" text-anchor="middle">Add &amp; LayerNorm</text>
    <path d="M303 272v28M303 356v28M303 462v28" stroke="#64748b" stroke-width="3"/>
    <rect x="680" y="90" width="430" height="510" rx="28" fill="#111827" stroke="#334155" stroke-width="2"/>
    <text x="895" y="136" fill="#a78bfa" font-size="22" font-weight="700" text-anchor="middle">DECODER × N</text>
    <rect x="752" y="166" width="286" height="68" rx="16" fill="#3b0764" stroke="#8b5cf6"/>
    <text x="895" y="207" fill="#ede9fe" font-size="19" text-anchor="middle">Masked Self-Attention</text>
    <rect x="752" y="256" width="286" height="46" rx="13" fill="#1e293b" stroke="#475569"/>
    <text x="895" y="285" fill="#cbd5e1" font-size="16" text-anchor="middle">Add &amp; LayerNorm</text>
    <rect x="752" y="324" width="286" height="68" rx="16" fill="#172554" stroke="#3b82f6"/>
    <text x="895" y="365" fill="#dbeafe" font-size="19" text-anchor="middle">Cross-Attention</text>
    <rect x="752" y="414" width="286" height="46" rx="13" fill="#1e293b" stroke="#475569"/>
    <text x="895" y="443" fill="#cbd5e1" font-size="16" text-anchor="middle">Add &amp; LayerNorm</text>
    <rect x="752" y="482" width="286" height="68" rx="16" fill="#134e4a" stroke="#14b8a6"/>
    <text x="895" y="523" fill="#ccfbf1" font-size="19" text-anchor="middle">Feed-Forward Network</text>
    <path d="M895 234v20M895 302v20M895 392v20M895 460v20" stroke="#64748b" stroke-width="3"/>
    <path d="M518 358H750" stroke="#60a5fa" stroke-width="4" stroke-dasharray="9 8"/>
    <text x="634" y="342" fill="#93c5fd" font-size="15" text-anchor="middle">K, V from Encoder</text>
  </g>
</svg>
