<svg xmlns="http://www.w3.org/2000/svg" width="1200" height="620" viewBox="0 0 1200 620">
  <defs><linearGradient id="g" x1="0" x2="1"><stop stop-color="#ecfeff"/><stop offset="1" stop-color="#f8fafc"/></linearGradient><marker id="arrow" viewBox="0 0 10 10" refX="9" refY="5" markerWidth="8" markerHeight="8" orient="auto-start-reverse"><path d="M0,0 L10,5 L0,10 z" fill="#0f766e"/></marker></defs>
  <rect width="1200" height="620" rx="28" fill="url(#g)"/>
  <text x="60" y="74" font-family="Inter,Arial" font-size="34" font-weight="700" fill="#0f172a">Forward Graph 与 Backward Graph</text>
  <text x="60" y="112" font-family="Inter,Arial" font-size="18" fill="#475569">前向保存产生张量的算子，反向沿边应用链式法则累积梯度</text>
  <g font-family="Inter,Arial" font-size="20" text-anchor="middle">
    <rect x="90" y="205" width="120" height="70" rx="16" fill="#fff" stroke="#06b6d4" stroke-width="3"/><text x="150" y="248">X</text>
    <rect x="90" y="345" width="120" height="70" rx="16" fill="#fff" stroke="#06b6d4" stroke-width="3"/><text x="150" y="388">W</text>
    <rect x="305" y="270" width="150" height="78" rx="16" fill="#f0fdfa" stroke="#14b8a6" stroke-width="3"/><text x="380" y="318">matmul</text>
    <rect x="550" y="270" width="135" height="78" rx="16" fill="#fefce8" stroke="#eab308" stroke-width="3"/><text x="617" y="318">ReLU</text>
    <rect x="780" y="270" width="160" height="78" rx="16" fill="#eff6ff" stroke="#3b82f6" stroke-width="3"/><text x="860" y="318">softmax</text>
    <rect x="1030" y="270" width="120" height="78" rx="16" fill="#fef2f2" stroke="#ef4444" stroke-width="3"/><text x="1090" y="318">loss</text>
  </g>
  <g stroke="#0f766e" stroke-width="4" fill="none" marker-end="url(#arrow)">
    <path d="M210 240 C250 240 265 288 305 300"/><path d="M210 380 C250 380 265 330 305 320"/><path d="M455 309 L550 309"/><path d="M685 309 L780 309"/><path d="M940 309 L1030 309"/>
  </g>
  <g stroke="#dc2626" stroke-width="3" fill="none" marker-end="url(#arrow)" stroke-dasharray="8 8">
    <path d="M1030 365 L940 430 L780 430 L685 365"/><path d="M550 365 L455 430 L305 430 L210 415"/><path d="M305 440 L210 275"/>
  </g>
  <text x="785" y="468" font-family="Inter,Arial" font-size="18" fill="#dc2626">backward: dLoss/dTensor</text>
</svg>
